<svg xmlns="http://www.w3.org/2000/svg" xmlns:xlink="http://www.w3.org/1999/xlink" width="740" height="429.07"><rect width="740" height="429.07" rx="5" ry="5" class="a"/><svg y="0%" x="0%"><circle cx="20" cy="20" r="6" fill="#ff5f58"/><circle cx="40" cy="20" r="6" fill="#ffbd2e"/><circle cx="60" cy="20" r="6" fill="#18c132"/></svg><svg height="369.07" viewBox="0 0 70 36.907" width="700" x="15" xmlns="http://www.w3.org/2000/svg" xmlns:xlink="http://www.w3.org/1999/xlink" y="50"><style>@keyframes k{0%{transform:translateX(0)}.1%{transform:translateX(-70px)}1.7%{transform:translateX(-140px)}2.5%{transform:translateX(-210px)}3.2%{transform:translateX(-280px)}4%{transform:translateX(-350px)}4.7%{transform:translateX(-420px)}5.5%{transform:translateX(-490px)}6.3%{transform:translateX(-560px)}7%{transform:translateX(-630px)}8.5%{transform:translateX(-700px)}9.3%{transform:translateX(-770px)}10%{transform:translateX(-840px)}10.7%{transform:translateX(-910px)}12.3%{transform:translateX(-980px)}13%{transform:translateX(-1050px)}13.8%{transform:translateX(-1120px)}14.5%{transform:translateX(-1190px)}15.3%{transform:translateX(-1260px)}16.8%{transform:translateX(-1330px)}17%{transform:translateX(-1400px)}18.6%{transform:translateX(-1470px)}19.4%{transform:translateX(-1540px)}20.1%{transform:translateX(-1610px)}20.9%{transform:translateX(-1680px)}21.7%{transform:translateX(-1750px)}22.4%{transform:translateX(-1820px)}23.2%{transform:translateX(-1890px)}24%{transform:translateX(-1960px)}25.5%{transform:translateX(-2030px)}26.3%{transform:translateX(-2100px)}27%{transform:translateX(-2170px)}27.8%{transform:translateX(-2240px)}28.6%{transform:translateX(-2310px)}29.3%{transform:translateX(-2380px)}29.5%{transform:translateX(-2520px)}29.6%{transform:translateX(-2590px)}31.1%{transform:translateX(-2660px)}31.9%{transform:translateX(-2730px)}32.6%{transform:translateX(-2800px)}33.3%{transform:translateX(-2870px)}34.1%{transform:translateX(-2940px)}34.9%{transform:translateX(-3010px)}35.6%{transform:translateX(-3080px)}36.4%{transform:translateX(-3150px)}37.1%{transform:translateX(-3220px)}37.9%{transform:translateX(-3290px)}38.6%{transform:translateX(-3360px)}39.4%{transform:translateX(-3430px)}40.1%{transform:translateX(-3500px)}41.6%{transform:translateX(-3570px)}42.4%{transform:translateX(-3640px)}43.1%{transform:translateX(-3710px)}43.9%{transform:translateX(-3780px)}44.1%{transform:translateX(-3990px)}45.7%{transform:translateX(-4060px)}46.4%{transform:translateX(-4130px)}47.2%{transform:translateX(-4200px)}47.9%{transform:translateX(-4270px)}48.7%{transform:translateX(-4340px)}49.4%{transform:translateX(-4410px)}50.2%{transform:translateX(-4480px)}50.9%{transform:translateX(-4550px)}51.7%{transform:translateX(-4620px)}52.4%{transform:translateX(-4690px)}53.2%{transform:translateX(-4760px)}53.3%{transform:translateX(-4830px)}68.3%{transform:translateX(-4970px)}69.8%{transform:translateX(-5040px)}70.5%{transform:translateX(-5110px)}71.3%{transform:translateX(-5180px)}72.1%{transform:translateX(-5250px)}72.8%{transform:translateX(-5320px)}73.6%{transform:translateX(-5390px)}74.3%{transform:translateX(-5460px)}74.4%{transform:translateX(-5600px)}74.5%{transform:translateX(-5670px)}76%{transform:translateX(-5740px)}76.8%{transform:translateX(-5810px)}77.5%{transform:translateX(-5880px)}78.3%{transform:translateX(-5950px)}79.1%{transform:translateX(-6020px)}79.8%{transform:translateX(-6090px)}83.7%{transform:translateX(-6160px)}to{transform:translateX(-6230px)}}.a{fill:#282d35}.f,.g,.h{fill:#71bef2;white-space:pre}.g,.h{fill:#b9c0cb}.h{fill:#66c2cd}</style><g font-family="Monaco,Consolas,Menlo,'Bitstream Vera Sans Mono','Powerline Symbols',monospace" font-size="1.67"><defs><symbol id="1"><text y="1.67" class="f">✡</text></symbol><symbol id="2"><text y="1.67" class="f">✡</text><text x="2.004" y="1.67" class="g">eval</text></symbol><symbol id="3"><text y="1.67" class="f">✡</text><text x="2.004" y="1.67" class="g">eval</text><text x="7.014" y="1.67" class="g">&quot;$(fnm</text></symbol><symbol id="4"><text y="1.67" class="f">✡</text><text x="2.004" y="1.67" class="g">eval</text><text x="7.014" y="1.67" class="g">&quot;$(fnm</text><text x="14.028" y="1.67" class="g">env)&quot;</text></symbol><symbol id="5"><text y="1.67" class="f">✡</text><text x="2.004" y="1.67" class="g">f</text></symbol><symbol id="6"><text y="1.67" class="f">✡</text><text x="2.004" y="1.67" class="g">fn</text></symbol><symbol id="7"><text y="1.67" class="f">✡</text><text x="2.004" y="1.67" class="g">fnm</text></symbol><symbol id="8"><text y="1.67" class="f">✡</text><text x="2.004" y="1.67" class="g">fnm</text><text x="6.012" y="1.67" class="g">--version</text></symbol><symbol id="9"><text y="1.67" class="g">fnm</text><text x="4.008" y="1.67" class="g">1.30.0</text></symbol><symbol id="10"><text y="1.67" class="f">✡</text><text x="2.004" y="1.67" class="g">cat</text></symbol><symbol id="11"><text y="1.67" class="f">✡</text><text x="2.004" y="1.67" class="g">cat</text><text x="6.012" y="1.67" class="g">.node-version</text></symbol><symbol id="12"><text y="1.67" class="g">16.13.2</text></symbol><symbol id="13"><text y="1.67" class="f">✡</text><text x="2.004" y="1.67" class="g">fnm</text><text x="6.012" y="1.67" class="g">install</text></symbol><symbol id="14"><text y="1.67" class="g">Installing</text><text x="11.022" y="1.67" class="h">Node</text><text x="16.032" y="1.67" class="h">v16.13.2</text><text x="25.05" y="1.67" class="g">(arm64)</text></symbol><symbol id="15"><text y="1.67" class="f">✡</text><text x="2.004" y="1.67" class="g">fnm</text><text x="6.012" y="1.67" class="g">use</text></symbol><symbol id="16"><text y="1.67" class="g">Using</text><text x="6.012" y="1.67" class="g">Node</text><text x="11.022" y="1.67" class="h">v16.13.2</text></symbol><symbol id="17"><text y="1.67" class="f">✡</text><text x="2.004" y="1.67" class="g">node</text></symbol><symbol id="18"><text y="1.67" class="f">✡</text><text x="2.004" y="1.67" class="g">node</text><text x="7.014" y="1.67" class="g">-v</text></symbol><symbol id="19"><text y="1.67" class="g">v16.13.2</text></symbol><symbol id="a"><path fill="transparent" d="M0 0h70v18H0z"/></symbol><symbol id="b"><path fill="#6f7683" d="M0 0h1.102v2.171H0z"/></symbol></defs><path class="a" d="M0 0h70v36.907H0z"/><g style="animation-duration:12.348486s;animation-iteration-count:infinite;animation-name:k;animation-timing-function:steps(1,end)"><svg width="6300"><svg><use xlink:href="#a"/><use xlink:href="#b" x="-.004"/></svg><svg x="70"><use xlink:href="#a"/><use xlink:href="#b" x="1.996"/><use xlink:href="#1"/></svg><svg x="140"><use xlink:href="#a"/><use xlink:href="#b" x="2.996"/><text y="1.67" class="f">✡</text><text x="2.004" y="1.67" class="g">e</text></svg><svg x="210"><use xlink:href="#a"/><use xlink:href="#b" x="3.996"/><text y="1.67" class="f">✡</text><text x="2.004" y="1.67" class="g">ev</text></svg><svg x="280"><use xlink:href="#a"/><use xlink:href="#b" x="4.996"/><text y="1.67" class="f">✡</text><text x="2.004" y="1.67" class="g">eva</text></svg><svg x="350"><use xlink:href="#a"/><use xlink:href="#b" x="5.996"/><use xlink:href="#2"/></svg><svg x="420"><use xlink:href="#a"/><use xlink:href="#b" x="6.996"/><use xlink:href="#2"/></svg><svg x="490"><use xlink:href="#a"/><use xlink:href="#b" x="7.996"/><text y="1.67" class="f">✡</text><text x="2.004" y="1.67" class="g">eval</text><text x="7.014" y="1.67" class="g">&quot;</text></svg><svg x="560"><use xlink:href="#a"/><use xlink:href="#b" x="8.996"/><text y="1.67" class="f">✡</text><text x="2.004" y="1.67" class="g">eval</text><text x="7.014" y="1.67" class="g">&quot;$</text></svg><svg x="630"><use xlink:href="#a"/><use xlink:href="#b" x="9.996"/><text y="1.67" class="f">✡</text><text x="2.004" y="1.67" class="g">eval</text><text x="7.014" y="1.67" class="g">&quot;$(</text></svg><svg x="700"><use xlink:href="#a"/><use xlink:href="#b" x="10.996"/><text y="1.67" class="f">✡</text><text x="2.004" y="1.67" class="g">eval</text><text x="7.014" y="1.67" class="g">&quot;$(f</text></svg><svg x="770"><use xlink:href="#a"/><use xlink:href="#b" x="11.996"/><text y="1.67" class="f">✡</text><text x="2.004" y="1.67" class="g">eval</text><text x="7.014" y="1.67" class="g">&quot;$(fn</text></svg><svg x="840"><use xlink:href="#a"/><use xlink:href="#b" x="12.996"/><use xlink:href="#3"/></svg><svg x="910"><use xlink:href="#a"/><use xlink:href="#b" x="13.996"/><use xlink:href="#3"/></svg><svg x="980"><use xlink:href="#a"/><use xlink:href="#b" x="14.996"/><text y="1.67" class="f">✡</text><text x="2.004" y="1.67" class="g">eval</text><text x="7.014" y="1.67" class="g">&quot;$(fnm</text><text x="14.028" y="1.67" class="g">e</text></svg><svg x="1050"><use xlink:href="#a"/><use xlink:href="#b" x="15.996"/><text y="1.67" class="f">✡</text><text x="2.004" y="1.67" class="g">eval</text><text x="7.014" y="1.67" class="g">&quot;$(fnm</text><text x="14.028" y="1.67" class="g">en</text></svg><svg x="1120"><use xlink:href="#a"/><use xlink:href="#b" x="16.996"/><text y="1.67" class="f">✡</text><text x="2.004" y="1.67" class="g">eval</text><text x="7.014" y="1.67" class="g">&quot;$(fnm</text><text x="14.028" y="1.67" class="g">env</text></svg><svg x="1190"><use xlink:href="#a"/><use xlink:href="#b" x="17.996"/><text y="1.67" class="f">✡</text><text x="2.004" y="1.67" class="g">eval</text><text x="7.014" y="1.67" class="g">&quot;$(fnm</text><text x="14.028" y="1.67" class="g">env)</text></svg><svg x="1260"><use xlink:href="#a"/><use xlink:href="#b" x="18.996"/><use xlink:href="#4"/></svg><svg x="1330"><use xlink:href="#a"/><use xlink:href="#b" x="-.004" y="2.146"/><use xlink:href="#4"/></svg><svg x="1400"><use xlink:href="#a"/><use xlink:href="#b" x="1.996" y="2.146"/><use xlink:href="#4"/><use xlink:href="#1" y="2.171"/></svg><svg x="1470"><use xlink:href="#a"/><use xlink:href="#b" x="2.996" y="2.146"/><use xlink:href="#4"/><use xlink:href="#5" y="2.171"/></svg><svg x="1540"><use xlink:href="#a"/><use xlink:href="#b" x="3.996" y="2.146"/><use xlink:href="#4"/><use xlink:href="#6" y="2.171"/></svg><svg x="1610"><use xlink:href="#a"/><use xlink:href="#b" x="4.996" y="2.146"/><use xlink:href="#4"/><use xlink:href="#7" y="2.171"/></svg><svg x="1680"><use xlink:href="#a"/><use xlink:href="#b" x="5.996" y="2.146"/><use xlink:href="#4"/><use xlink:href="#7" y="2.171"/></svg><svg x="1750"><use xlink:href="#a"/><use xlink:href="#b" x="6.996" y="2.146"/><use xlink:href="#4"/><text y="3.841" class="f">✡</text><text x="2.004" y="3.841" class="g">fnm</text><text x="6.012" y="3.841" class="g">-</text></svg><svg x="1820"><use xlink:href="#a"/><use xlink:href="#b" x="7.996" y="2.146"/><use xlink:href="#4"/><text y="3.841" class="f">✡</text><text x="2.004" y="3.841" class="g">fnm</text><text x="6.012" y="3.841" class="g">--</text></svg><svg x="1890"><use xlink:href="#a"/><use xlink:href="#b" x="8.996" y="2.146"/><use xlink:href="#4"/><text y="3.841" class="f">✡</text><text x="2.004" y="3.841" class="g">fnm</text><text x="6.012" y="3.841" class="g">--v</text></svg><svg x="1960"><use xlink:href="#a"/><use xlink:href="#b" x="9.996" y="2.146"/><use xlink:href="#4"/><text y="3.841" class="f">✡</text><text x="2.004" y="3.841" class="g">fnm</text><text x="6.012" y="3.841" class="g">--ve</text></svg><svg x="2030"><use xlink:href="#a"/><use xlink:href="#b" x="10.996" y="2.146"/><use xlink:href="#4"/><text y="3.841" class="f">✡</text><text x="2.004" y="3.841" class="g">fnm</text><text x="6.012" y="3.841" class="g">--ver</text></svg><svg x="2100"><use xlink:href="#a"/><use xlink:href="#b" x="11.996" y="2.146"/><use xlink:href="#4"/><text y="3.841" class="f">✡</text><text x="2.004" y="3.841" class="g">fnm</text><text x="6.012" y="3.841" class="g">--vers</text></svg><svg x="2170"><use xlink:href="#a"/><use xlink:href="#b" x="12.996" y="2.146"/><use xlink:href="#4"/><text y="3.841" class="f">✡</text><text x="2.004" y="3.841" class="g">fnm</text><text x="6.012" y="3.841" class="g">--versi</text></svg><svg x="2240"><use xlink:href="#a"/><use xlink:href="#b" x="13.996" y="2.146"/><use xlink:href="#4"/><text y="3.841" class="f">✡</text><text x="2.004" y="3.841" class="g">fnm</text><text x="6.012" y="3.841" class="g">--versio</text></svg><svg x="2310"><use xlink:href="#a"/><use xlink:href="#b" x="14.996" y="2.146"/><use xlink:href="#4"/><use xlink:href="#8" y="2.171"/></svg><svg x="2380"><use xlink:href="#a"/><use xlink:href="#b" x="-.004" y="4.317"/><use xlink:href="#4"/><use xlink:href="#8" y="2.171"/></svg><svg x="2450"><use xlink:href="#a"/><use xlink:href="#b" x="-.004" y="6.488"/><use xlink:href="#4"/><use xlink:href="#8" y="2.171"/><use xlink:href="#9" y="4.342"/></svg><svg x="2520"><use xlink:href="#a"/><use xlink:href="#b" x="1.996" y="6.488"/><use xlink:href="#4"/><use xlink:href="#8" y="2.171"/><use xlink:href="#9" y="4.342"/><use xlink:href="#1" y="6.513"/></svg><svg x="2590"><use xlink:href="#a"/><use xlink:href="#b" x="2.996" y="6.488"/><use xlink:href="#4"/><use xlink:href="#8" y="2.171"/><use xlink:href="#9" y="4.342"/><text y="8.183" class="f">✡</text><text x="2.004" y="8.183" class="g">c</text></svg><svg x="2660"><use xlink:href="#a"/><use xlink:href="#b" x="3.996" y="6.488"/><use xlink:href="#4"/><use xlink:href="#8" y="2.171"/><use xlink:href="#9" y="4.342"/><text y="8.183" class="f">✡</text><text x="2.004" y="8.183" class="g">ca</text></svg><svg x="2730"><use xlink:href="#a"/><use xlink:href="#b" x="4.996" y="6.488"/><use xlink:href="#4"/><use xlink:href="#8" y="2.171"/><use xlink:href="#9" y="4.342"/><use xlink:href="#10" y="6.513"/></svg><svg x="2800"><use xlink:href="#a"/><use xlink:href="#b" x="5.996" y="6.488"/><use xlink:href="#4"/><use xlink:href="#8" y="2.171"/><use xlink:href="#9" y="4.342"/><use xlink:href="#10" y="6.513"/></svg><svg x="2870"><use xlink:href="#a"/><use xlink:href="#b" x="6.996" y="6.488"/><use xlink:href="#4"/><use xlink:href="#8" y="2.171"/><use xlink:href="#9" y="4.342"/><text y="8.183" class="f">✡</text><text x="2.004" y="8.183" class="g">cat</text><text x="6.012" y="8.183" class="g">.</text></svg><svg x="2940"><use xlink:href="#a"/><use xlink:href="#b" x="7.996" y="6.488"/><use xlink:href="#4"/><use xlink:href="#8" y="2.171"/><use xlink:href="#9" y="4.342"/><text y="8.183" class="f">✡</text><text x="2.004" y="8.183" class="g">cat</text><text x="6.012" y="8.183" class="g">.n</text></svg><svg x="3010"><use xlink:href="#a"/><use xlink:href="#b" x="8.996" y="6.488"/><use xlink:href="#4"/><use xlink:href="#8" y="2.171"/><use xlink:href="#9" y="4.342"/><text y="8.183" class="f">✡</text><text x="2.004" y="8.183" class="g">cat</text><text x="6.012" y="8.183" class="g">.no</text></svg><svg x="3080"><use xlink:href="#a"/><use xlink:href="#b" x="9.996" y="6.488"/><use xlink:href="#4"/><use xlink:href="#8" y="2.171"/><use xlink:href="#9" y="4.342"/><text y="8.183" class="f">✡</text><text x="2.004" y="8.183" class="g">cat</text><text x="6.012" y="8.183" class="g">.nod</text></svg><svg x="3150"><use xlink:href="#a"/><use xlink:href="#b" x="10.996" y="6.488"/><use xlink:href="#4"/><use xlink:href="#8" y="2.171"/><use xlink:href="#9" y="4.342"/><text y="8.183" class="f">✡</text><text x="2.004" y="8.183" class="g">cat</text><text x="6.012" y="8.183" class="g">.node</text></svg><svg x="3220"><use xlink:href="#a"/><use xlink:href="#b" x="11.996" y="6.488"/><use xlink:href="#4"/><use xlink:href="#8" y="2.171"/><use xlink:href="#9" y="4.342"/><text y="8.183" class="f">✡</text><text x="2.004" y="8.183" class="g">cat</text><text x="6.012" y="8.183" class="g">.node-</text></svg><svg x="3290"><use xlink:href="#a"/><use xlink:href="#b" x="12.996" y="6.488"/><use xlink:href="#4"/><use xlink:href="#8" y="2.171"/><use xlink:href="#9" y="4.342"/><text y="8.183" class="f">✡</text><text x="2.004" y="8.183" class="g">cat</text><text x="6.012" y="8.183" class="g">.node-v</text></svg><svg x="3360"><use xlink:href="#a"/><use xlink:href="#b" x="13.996" y="6.488"/><use xlink:href="#4"/><use xlink:href="#8" y="2.171"/><use xlink:href="#9" y="4.342"/><text y="8.183" class="f">✡</text><text x="2.004" y="8.183" class="g">cat</text><text x="6.012" y="8.183" class="g">.node-ve</text></svg><svg x="3430"><use xlink:href="#a"/><use xlink:href="#b" x="14.996" y="6.488"/><use xlink:href="#4"/><use xlink:href="#8" y="2.171"/><use xlink:href="#9" y="4.342"/><text y="8.183" class="f">✡</text><text x="2.004" y="8.183" class="g">cat</text><text x="6.012" y="8.183" class="g">.node-ver</text></svg><svg x="3500"><use xlink:href="#a"/><use xlink:href="#b" x="15.996" y="6.488"/><use xlink:href="#4"/><use xlink:href="#8" y="2.171"/><use xlink:href="#9" y="4.342"/><text y="8.183" class="f">✡</text><text x="2.004" y="8.183" class="g">cat</text><text x="6.012" y="8.183" class="g">.node-vers</text></svg><svg x="3570"><use xlink:href="#a"/><use xlink:href="#b" x="16.996" y="6.488"/><use xlink:href="#4"/><use xlink:href="#8" y="2.171"/><use xlink:href="#9" y="4.342"/><text y="8.183" class="f">✡</text><text x="2.004" y="8.183" class="g">cat</text><text x="6.012" y="8.183" class="g">.node-versi</text></svg><svg x="3640"><use xlink:href="#a"/><use xlink:href="#b" x="17.996" y="6.488"/><use xlink:href="#4"/><use xlink:href="#8" y="2.171"/><use xlink:href="#9" y="4.342"/><text y="8.183" class="f">✡</text><text x="2.004" y="8.183" class="g">cat</text><text x="6.012" y="8.183" class="g">.node-versio</text></svg><svg x="3710"><use xlink:href="#a"/><use xlink:href="#b" x="18.996" y="6.488"/><use xlink:href="#4"/><use xlink:href="#8" y="2.171"/><use xlink:href="#9" y="4.342"/><use xlink:href="#11" y="6.513"/></svg><svg x="3780"><use xlink:href="#a"/><use xlink:href="#b" x="-.004" y="8.659"/><use xlink:href="#4"/><use xlink:href="#8" y="2.171"/><use xlink:href="#9" y="4.342"/><use xlink:href="#11" y="6.513"/></svg><svg x="3850"><use xlink:href="#a"/><use xlink:href="#b" x="-.004" y="10.83"/><use xlink:href="#4"/><use xlink:href="#8" y="2.171"/><use xlink:href="#9" y="4.342"/><use xlink:href="#11" y="6.513"/><use xlink:href="#12" y="8.684"/></svg><svg x="3920"><use xlink:href="#a"/><use xlink:href="#b" x="1.996" y="10.83"/><use xlink:href="#4"/><use xlink:href="#8" y="2.171"/><use xlink:href="#9" y="4.342"/><use xlink:href="#11" y="6.513"/><use xlink:href="#12" y="8.684"/><use xlink:href="#1" y="10.855"/></svg><svg x="3990"><use xlink:href="#a"/><use xlink:href="#b" x="2.996" y="10.83"/><use xlink:href="#4"/><use xlink:href="#8" y="2.171"/><use xlink:href="#9" y="4.342"/><use xlink:href="#11" y="6.513"/><use xlink:href="#12" y="8.684"/><use xlink:href="#5" y="10.855"/></svg><svg x="4060"><use xlink:href="#a"/><use xlink:href="#b" x="3.996" y="10.83"/><use xlink:href="#4"/><use xlink:href="#8" y="2.171"/><use xlink:href="#9" y="4.342"/><use xlink:href="#11" y="6.513"/><use xlink:href="#12" y="8.684"/><use xlink:href="#6" y="10.855"/></svg><svg x="4130"><use xlink:href="#a"/><use xlink:href="#b" x="4.996" y="10.83"/><use xlink:href="#4"/><use xlink:href="#8" y="2.171"/><use xlink:href="#9" y="4.342"/><use xlink:href="#11" y="6.513"/><use xlink:href="#12" y="8.684"/><use xlink:href="#7" y="10.855"/></svg><svg x="4200"><use xlink:href="#a"/><use xlink:href="#b" x="5.996" y="10.83"/><use xlink:href="#4"/><use xlink:href="#8" y="2.171"/><use xlink:href="#9" y="4.342"/><use xlink:href="#11" y="6.513"/><use xlink:href="#12" y="8.684"/><use xlink:href="#7" y="10.855"/></svg><svg x="4270"><use xlink:href="#a"/><use xlink:href="#b" x="6.996" y="10.83"/><use xlink:href="#4"/><use xlink:href="#8" y="2.171"/><use xlink:href="#9" y="4.342"/><use xlink:href="#11" y="6.513"/><use xlink:href="#12" y="8.684"/><text y="12.525" class="f">✡</text><text x="2.004" y="12.525" class="g">fnm</text><text x="6.012" y="12.525" class="g">i</text></svg><svg x="4340"><use xlink:href="#a"/><use xlink:href="#b" x="7.996" y="10.83"/><use xlink:href="#4"/><use xlink:href="#8" y="2.171"/><use xlink:href="#9" y="4.342"/><use xlink:href="#11" y="6.513"/><use xlink:href="#12" y="8.684"/><text y="12.525" class="f">✡</text><text x="2.004" y="12.525" class="g">fnm</text><text x="6.012" y="12.525" class="g">in</text></svg><svg x="4410"><use xlink:href="#a"/><use xlink:href="#b" x="8.996" y="10.83"/><use xlink:href="#4"/><use xlink:href="#8" y="2.171"/><use xlink:href="#9" y="4.342"/><use xlink:href="#11" y="6.513"/><use xlink:href="#12" y="8.684"/><text y="12.525" class="f">✡</text><text x="2.004" y="12.525" class="g">fnm</text><text x="6.012" y="12.525" class="g">ins</text></svg><svg x="4480"><use xlink:href="#a"/><use xlink:href="#b" x="9.996" y="10.83"/><use xlink:href="#4"/><use xlink:href="#8" y="2.171"/><use xlink:href="#9" y="4.342"/><use xlink:href="#11" y="6.513"/><use xlink:href="#12" y="8.684"/><text y="12.525" class="f">✡</text><text x="2.004" y="12.525" class="g">fnm</text><text x="6.012" y="12.525" class="g">inst</text></svg><svg x="4550"><use xlink:href="#a"/><use xlink:href="#b" x="10.996" y="10.83"/><use xlink:href="#4"/><use xlink:href="#8" y="2.171"/><use xlink:href="#9" y="4.342"/><use xlink:href="#11" y="6.513"/><use xlink:href="#12" y="8.684"/><text y="12.525" class="f">✡</text><text x="2.004" y="12.525" class="g">fnm</text><text x="6.012" y="12.525" class="g">insta</text></svg><svg x="4620"><use xlink:href="#a"/><use xlink:href="#b" x="11.996" y="10.83"/><use xlink:href="#4"/><use xlink:href="#8" y="2.171"/><use xlink:href="#9" y="4.342"/><use xlink:href="#11" y="6.513"/><use xlink:href="#12" y="8.684"/><text y="12.525" class="f">✡</text><text x="2.004" y="12.525" class="g">fnm</text><text x="6.012" y="12.525" class="g">instal</text></svg><svg x="4690"><use xlink:href="#a"/><use xlink:href="#b" x="12.996" y="10.83"/><use xlink:href="#4"/><use xlink:href="#8" y="2.171"/><use xlink:href="#9" y="4.342"/><use xlink:href="#11" y="6.513"/><use xlink:href="#12" y="8.684"/><use xlink:href="#13" y="10.855"/></svg><svg x="4760"><use xlink:href="#a"/><use xlink:href="#b" x="-.004" y="13.001"/><use xlink:href="#4"/><use xlink:href="#8" y="2.171"/><use xlink:href="#9" y="4.342"/><use xlink:href="#11" y="6.513"/><use xlink:href="#12" y="8.684"/><use xlink:href="#13" y="10.855"/></svg><svg x="4830"><use xlink:href="#a"/><use xlink:href="#b" x="-.004" y="15.172"/><use xlink:href="#4"/><use xlink:href="#8" y="2.171"/><use xlink:href="#9" y="4.342"/><use xlink:href="#11" y="6.513"/><use xlink:href="#12" y="8.684"/><use xlink:href="#13" y="10.855"/><use xlink:href="#14" y="13.026"/></svg><svg x="4900"><use xlink:href="#a"/><use xlink:href="#b" x="1.996" y="15.172"/><use xlink:href="#4"/><use xlink:href="#8" y="2.171"/><use xlink:href="#9" y="4.342"/><use xlink:href="#11" y="6.513"/><use xlink:href="#12" y="8.684"/><use xlink:href="#13" y="10.855"/><use xlink:href="#14" y="13.026"/><use xlink:href="#1" y="15.197"/></svg><svg x="4970"><use xlink:href="#a"/><use xlink:href="#b" x="2.996" y="15.172"/><use xlink:href="#4"/><use xlink:href="#8" y="2.171"/><use xlink:href="#9" y="4.342"/><use xlink:href="#11" y="6.513"/><use xlink:href="#12" y="8.684"/><use xlink:href="#13" y="10.855"/><use xlink:href="#14" y="13.026"/><use xlink:href="#5" y="15.197"/></svg><svg x="5040"><use xlink:href="#a"/><use xlink:href="#b" x="3.996" y="15.172"/><use xlink:href="#4"/><use xlink:href="#8" y="2.171"/><use xlink:href="#9" y="4.342"/><use xlink:href="#11" y="6.513"/><use xlink:href="#12" y="8.684"/><use xlink:href="#13" y="10.855"/><use xlink:href="#14" y="13.026"/><use xlink:href="#6" y="15.197"/></svg><svg x="5110"><use xlink:href="#a"/><use xlink:href="#b" x="4.996" y="15.172"/><use xlink:href="#4"/><use xlink:href="#8" y="2.171"/><use xlink:href="#9" y="4.342"/><use xlink:href="#11" y="6.513"/><use xlink:href="#12" y="8.684"/><use xlink:href="#13" y="10.855"/><use xlink:href="#14" y="13.026"/><use xlink:href="#7" y="15.197"/></svg><svg x="5180"><use xlink:href="#a"/><use xlink:href="#b" x="5.996" y="15.172"/><use xlink:href="#4"/><use xlink:href="#8" y="2.171"/><use xlink:href="#9" y="4.342"/><use xlink:href="#11" y="6.513"/><use xlink:href="#12" y="8.684"/><use xlink:href="#13" y="10.855"/><use xlink:href="#14" y="13.026"/><use xlink:href="#7" y="15.197"/></svg><svg x="5250"><use xlink:href="#a"/><use xlink:href="#b" x="6.996" y="15.172"/><use xlink:href="#4"/><use xlink:href="#8" y="2.171"/><use xlink:href="#9" y="4.342"/><use xlink:href="#11" y="6.513"/><use xlink:href="#12" y="8.684"/><use xlink:href="#13" y="10.855"/><use xlink:href="#14" y="13.026"/><text y="16.867" class="f">✡</text><text x="2.004" y="16.867" class="g">fnm</text><text x="6.012" y="16.867" class="g">u</text></svg><svg x="5320"><use xlink:href="#a"/><use xlink:href="#b" x="7.996" y="15.172"/><use xlink:href="#4"/><use xlink:href="#8" y="2.171"/><use xlink:href="#9" y="4.342"/><use xlink:href="#11" y="6.513"/><use xlink:href="#12" y="8.684"/><use xlink:href="#13" y="10.855"/><use xlink:href="#14" y="13.026"/><text y="16.867" class="f">✡</text><text x="2.004" y="16.867" class="g">fnm</text><text x="6.012" y="16.867" class="g">us</text></svg><svg x="5390"><use xlink:href="#a"/><use xlink:href="#b" x="8.996" y="15.172"/><use xlink:href="#4"/><use xlink:href="#8" y="2.171"/><use xlink:href="#9" y="4.342"/><use xlink:href="#11" y="6.513"/><use xlink:href="#12" y="8.684"/><use xlink:href="#13" y="10.855"/><use xlink:href="#14" y="13.026"/><use xlink:href="#15" y="15.197"/></svg><svg x="5460"><use xlink:href="#a"/><use xlink:href="#b" x="-.004" y="17.343"/><use xlink:href="#4"/><use xlink:href="#8" y="2.171"/><use xlink:href="#9" y="4.342"/><use xlink:href="#11" y="6.513"/><use xlink:href="#12" y="8.684"/><use xlink:href="#13" y="10.855"/><use xlink:href="#14" y="13.026"/><use xlink:href="#15" y="15.197"/></svg><svg x="5530"><use xlink:href="#a"/><use xlink:href="#b" x="-.004" y="19.514"/><use xlink:href="#4"/><use xlink:href="#8" y="2.171"/><use xlink:href="#9" y="4.342"/><use xlink:href="#11" y="6.513"/><use xlink:href="#12" y="8.684"/><use xlink:href="#13" y="10.855"/><use xlink:href="#14" y="13.026"/><use xlink:href="#15" y="15.197"/><use xlink:href="#16" y="17.368"/></svg><svg x="5600"><use xlink:href="#a"/><use xlink:href="#b" x="1.996" y="19.514"/><use xlink:href="#4"/><use xlink:href="#8" y="2.171"/><use xlink:href="#9" y="4.342"/><use xlink:href="#11" y="6.513"/><use xlink:href="#12" y="8.684"/><use xlink:href="#13" y="10.855"/><use xlink:href="#14" y="13.026"/><use xlink:href="#15" y="15.197"/><use xlink:href="#16" y="17.368"/><use xlink:href="#1" y="19.539"/></svg><svg x="5670"><use xlink:href="#a"/><use xlink:href="#b" x="2.996" y="19.514"/><use xlink:href="#4"/><use xlink:href="#8" y="2.171"/><use xlink:href="#9" y="4.342"/><use xlink:href="#11" y="6.513"/><use xlink:href="#12" y="8.684"/><use xlink:href="#13" y="10.855"/><use xlink:href="#14" y="13.026"/><use xlink:href="#15" y="15.197"/><use xlink:href="#16" y="17.368"/><text y="21.209" class="f">✡</text><text x="2.004" y="21.209" class="g">n</text></svg><svg x="5740"><use xlink:href="#a"/><use xlink:href="#b" x="3.996" y="19.514"/><use xlink:href="#4"/><use xlink:href="#8" y="2.171"/><use xlink:href="#9" y="4.342"/><use xlink:href="#11" y="6.513"/><use xlink:href="#12" y="8.684"/><use xlink:href="#13" y="10.855"/><use xlink:href="#14" y="13.026"/><use xlink:href="#15" y="15.197"/><use xlink:href="#16" y="17.368"/><text y="21.209" class="f">✡</text><text x="2.004" y="21.209" class="g">no</text></svg><svg x="5810"><use xlink:href="#a"/><use xlink:href="#b" x="4.996" y="19.514"/><use xlink:href="#4"/><use xlink:href="#8" y="2.171"/><use xlink:href="#9" y="4.342"/><use xlink:href="#11" y="6.513"/><use xlink:href="#12" y="8.684"/><use xlink:href="#13" y="10.855"/><use xlink:href="#14" y="13.026"/><use xlink:href="#15" y="15.197"/><use xlink:href="#16" y="17.368"/><text y="21.209" class="f">✡</text><text x="2.004" y="21.209" class="g">nod</text></svg><svg x="5880"><use xlink:href="#a"/><use xlink:href="#b" x="5.996" y="19.514"/><use xlink:href="#4"/><use xlink:href="#8" y="2.171"/><use xlink:href="#9" y="4.342"/><use xlink:href="#11" y="6.513"/><use xlink:href="#12" y="8.684"/><use xlink:href="#13" y="10.855"/><use xlink:href="#14" y="13.026"/><use xlink:href="#15" y="15.197"/><use xlink:href="#16" y="17.368"/><use xlink:href="#17" y="19.539"/></svg><svg x="5950"><use xlink:href="#a"/><use xlink:href="#b" x="6.996" y="19.514"/><use xlink:href="#4"/><use xlink:href="#8" y="2.171"/><use xlink:href="#9" y="4.342"/><use xlink:href="#11" y="6.513"/><use xlink:href="#12" y="8.684"/><use xlink:href="#13" y="10.855"/><use xlink:href="#14" y="13.026"/><use xlink:href="#15" y="15.197"/><use xlink:href="#16" y="17.368"/><use xlink:href="#17" y="19.539"/></svg><svg x="6020"><use xlink:href="#a"/><use xlink:href="#b" x="8.996" y="19.514"/><use xlink:href="#4"/><use xlink:href="#8" y="2.171"/><use xlink:href="#9" y="4.342"/><use xlink:href="#11" y="6.513"/><use xlink:href="#12" y="8.684"/><use xlink:href="#13" y="10.855"/><use xlink:href="#14" y="13.026"/><use xlink:href="#15" y="15.197"/><use xlink:href="#16" y="17.368"/><use xlink:href="#18" y="19.539"/></svg><svg x="6090"><use xlink:href="#a"/><use xlink:href="#b" x="-.004" y="21.685"/><use xlink:href="#4"/><use xlink:href="#8" y="2.171"/><use xlink:href="#9" y="4.342"/><use xlink:href="#11" y="6.513"/><use xlink:href="#12" y="8.684"/><use xlink:href="#13" y="10.855"/><use xlink:href="#14" y="13.026"/><use xlink:href="#15" y="15.197"/><use xlink:href="#16" y="17.368"/><use xlink:href="#18" y="19.539"/></svg><svg x="6160"><use xlink:href="#a"/><use xlink:href="#b" x="-.004" y="23.856"/><use xlink:href="#4"/><use xlink:href="#8" y="2.171"/><use xlink:href="#9" y="4.342"/><use xlink:href="#11" y="6.513"/><use xlink:href="#12" y="8.684"/><use xlink:href="#13" y="10.855"/><use xlink:href="#14" y="13.026"/><use xlink:href="#15" y="15.197"/><use xlink:href="#16" y="17.368"/><use xlink:href="#18" y="19.539"/><use xlink:href="#19" y="21.71"/></svg><svg x="6230"><use xlink:href="#a"/><use xlink:href="#b" x="-.004" y="26.027"/><use xlink:href="#4"/><use xlink:href="#8" y="2.171"/><use xlink:href="#9" y="4.342"/><use xlink:href="#11" y="6.513"/><use xlink:href="#12" y="8.684"/><use xlink:href="#13" y="10.855"/><use xlink:href="#14" y="13.026"/><use xlink:href="#15" y="15.197"/><use xlink:href="#16" y="17.368"/><use xlink:href="#18" y="19.539"/><use xlink:href="#19" y="21.71"/></svg></svg></g></g></svg></svg>