<svg xmlns="http://www.w3.org/2000/svg" xmlns:xlink="http://www.w3.org/1999/xlink" width="740" height="429.07"><rect width="740" height="429.07" rx="5" ry="5" class="a"/><svg y="0%" x="0%"><circle cx="20" cy="20" r="6" fill="#ff5f58"/><circle cx="40" cy="20" r="6" fill="#ffbd2e"/><circle cx="60" cy="20" r="6" fill="#18c132"/></svg><svg height="369.07" viewBox="0 0 70 36.907" width="700" x="15" xmlns="http://www.w3.org/2000/svg" xmlns:xlink="http://www.w3.org/1999/xlink" y="50"><style>@keyframes k{0%{transform:translateX(0)}.1%{transform:translateX(-70px)}1.4%{transform:translateX(-140px)}2%{transform:translateX(-210px)}2.6%{transform:translateX(-280px)}3.2%{transform:translateX(-350px)}4.4%{transform:translateX(-420px)}5%{transform:translateX(-490px)}5.6%{transform:translateX(-560px)}6.2%{transform:translateX(-630px)}7.4%{transform:translateX(-700px)}8%{transform:translateX(-770px)}9.2%{transform:translateX(-840px)}9.8%{transform:translateX(-910px)}11%{transform:translateX(-980px)}11.6%{transform:translateX(-1050px)}12.3%{transform:translateX(-1120px)}12.4%{transform:translateX(-1190px)}13.7%{transform:translateX(-1260px)}14.3%{transform:translateX(-1330px)}14.9%{transform:translateX(-1400px)}15.6%{transform:translateX(-1470px)}16.1%{transform:translateX(-1540px)}16.8%{transform:translateX(-1610px)}17.4%{transform:translateX(-1680px)}18%{transform:translateX(-1750px)}19.2%{transform:translateX(-1820px)}19.8%{transform:translateX(-1890px)}20.4%{transform:translateX(-1960px)}21.1%{transform:translateX(-2030px)}21.7%{transform:translateX(-2100px)}22.9%{transform:translateX(-2170px)}23%{transform:translateX(-2310px)}24.2%{transform:translateX(-2380px)}24.8%{transform:translateX(-2450px)}25.4%{transform:translateX(-2520px)}26.1%{transform:translateX(-2590px)}26.7%{transform:translateX(-2660px)}27.3%{transform:translateX(-2730px)}27.9%{transform:translateX(-2800px)}28.5%{transform:translateX(-2870px)}29.7%{transform:translateX(-2940px)}30.3%{transform:translateX(-3010px)}30.9%{transform:translateX(-3080px)}31%{transform:translateX(-3290px)}32.2%{transform:translateX(-3360px)}32.8%{transform:translateX(-3430px)}33.4%{transform:translateX(-3500px)}34%{transform:translateX(-3570px)}34.6%{transform:translateX(-3640px)}35.3%{transform:translateX(-3710px)}35.9%{transform:translateX(-3780px)}36.5%{transform:translateX(-3850px)}37.1%{transform:translateX(-3920px)}37.7%{transform:translateX(-3990px)}57.3%{transform:translateX(-4060px)}74.8%{transform:translateX(-4130px)}74.9%{transform:translateX(-4200px)}76.1%{transform:translateX(-4270px)}76.7%{transform:translateX(-4340px)}77.3%{transform:translateX(-4410px)}77.9%{transform:translateX(-4480px)}78.5%{transform:translateX(-4550px)}79.2%{transform:translateX(-4620px)}79.4%{transform:translateX(-4690px)}79.5%{transform:translateX(-4830px)}80.7%{transform:translateX(-4900px)}81.3%{transform:translateX(-4970px)}81.9%{transform:translateX(-5040px)}82.5%{transform:translateX(-5110px)}83.1%{transform:translateX(-5180px)}83.7%{transform:translateX(-5250px)}84.3%{transform:translateX(-5320px)}86.8%{transform:translateX(-5390px)}to{transform:translateX(-5460px)}}.a{fill:#282d35}.f{fill:#71bef2}.g{fill:#b9c0cb}.h{fill:#66c2cd}</style><g font-size="1.67" font-family="Monaco,Consolas,Menlo,'Bitstream Vera Sans Mono','Powerline Symbols',monospace"><defs><symbol id="11"><text y="1.67" class="f">✡</text><text x="2.004" y="1.67" class="g">cat</text><text x="6.012" y="1.67" class="g">.nvmrc</text></symbol><symbol id="1"><text y="1.67" class="f">✡</text></symbol><symbol id="3"><text y="1.67" class="f">✡</text><text x="2.004" y="1.67" class="g">eval</text><text x="7.014" y="1.67" class="g">`fnm</text></symbol><symbol id="4"><text y="1.67" class="f">✡</text><text x="2.004" y="1.67" class="g">eval</text><text x="7.014" y="1.67" class="g">`fnm</text><text x="12.024" y="1.67" class="g">env`</text></symbol><symbol id="5"><text y="1.67" class="f">✡</text><text x="2.004" y="1.67" class="g">f</text></symbol><symbol id="6"><text y="1.67" class="f">✡</text><text x="2.004" y="1.67" class="g">fn</text></symbol><symbol id="7"><text y="1.67" class="f">✡</text><text x="2.004" y="1.67" class="g">fnm</text></symbol><symbol id="8"><text y="1.67" class="f">✡</text><text x="2.004" y="1.67" class="g">fnm</text><text x="6.012" y="1.67" class="g">--version</text></symbol><symbol id="9"><text y="1.67" class="g">1.15.0</text></symbol><symbol id="10"><text y="1.67" class="f">✡</text><text x="2.004" y="1.67" class="g">cat</text></symbol><symbol id="2"><text y="1.67" class="f">✡</text><text x="2.004" y="1.67" class="g">eval</text></symbol><symbol id="12"><text y="1.67" class="g">10.9.0</text></symbol><symbol id="13"><text y="1.67" class="f">✡</text><text x="2.004" y="1.67" class="g">fnm</text><text x="6.012" y="1.67" class="g">install</text></symbol><symbol id="14"><text y="1.67" class="g">Version</text><text x="8.016" y="1.67" class="h">v10.9.0</text><text x="16.032" y="1.67" class="g">was</text><text x="20.04" y="1.67" class="g">successfully</text><text x="33.066" y="1.67" class="g">downloaded</text></symbol><symbol id="15"><text y="1.67" class="f">✡</text><text x="2.004" y="1.67" class="g">fnm</text><text x="6.012" y="1.67" class="g">use</text></symbol><symbol id="16"><text y="1.67" class="g">Using</text><text x="6.012" y="1.67" class="h">v10.9.0</text></symbol><symbol id="17"><text y="1.67" class="f">✡</text><text x="2.004" y="1.67" class="g">node</text></symbol><symbol id="18"><text y="1.67" class="f">✡</text><text x="2.004" y="1.67" class="g">node</text><text x="7.014" y="1.67" class="g">-v</text></symbol><symbol id="19"><text y="1.67" class="g">v10.9.0</text></symbol><symbol id="a"><path fill="transparent" d="M0 0h70v18H0z"/></symbol><symbol id="b"><path fill="#6f7683" d="M0 0h1.102v2.171H0z"/></symbol></defs><path class="a" d="M0 0h70v36.907H0z"/><g style="animation-duration:15.237244s;animation-iteration-count:infinite;animation-name:k;animation-timing-function:steps(1,end)"><svg width="5530"><svg><use xlink:href="#a"/><use xlink:href="#b" x="-.004"/></svg><svg x="70"><use xlink:href="#a"/><use xlink:href="#b" x="1.996"/><use xlink:href="#1"/></svg><svg x="140"><use xlink:href="#a"/><use xlink:href="#b" x="2.996"/><text y="1.67" class="f">✡</text><text x="2.004" y="1.67" class="g">e</text></svg><svg x="210"><use xlink:href="#a"/><use xlink:href="#b" x="3.996"/><text y="1.67" class="f">✡</text><text x="2.004" y="1.67" class="g">ev</text></svg><svg x="280"><use xlink:href="#a"/><use xlink:href="#b" x="4.996"/><text y="1.67" class="f">✡</text><text x="2.004" y="1.67" class="g">eva</text></svg><svg x="350"><use xlink:href="#a"/><use xlink:href="#b" x="5.996"/><use xlink:href="#2"/></svg><svg x="420"><use xlink:href="#a"/><use xlink:href="#b" x="6.996"/><use xlink:href="#2"/></svg><svg x="490"><use xlink:href="#a"/><use xlink:href="#b" x="7.996"/><text y="1.67" class="f">✡</text><text x="2.004" y="1.67" class="g">eval</text><text x="7.014" y="1.67" class="g">`</text></svg><svg x="560"><use xlink:href="#a"/><use xlink:href="#b" x="8.996"/><text y="1.67" class="f">✡</text><text x="2.004" y="1.67" class="g">eval</text><text x="7.014" y="1.67" class="g">`f</text></svg><svg x="630"><use xlink:href="#a"/><use xlink:href="#b" x="9.996"/><text y="1.67" class="f">✡</text><text x="2.004" y="1.67" class="g">eval</text><text x="7.014" y="1.67" class="g">`fn</text></svg><svg x="700"><use xlink:href="#a"/><use xlink:href="#b" x="10.996"/><use xlink:href="#3"/></svg><svg x="770"><use xlink:href="#a"/><use xlink:href="#b" x="11.996"/><use xlink:href="#3"/></svg><svg x="840"><use xlink:href="#a"/><use xlink:href="#b" x="12.996"/><text y="1.67" class="f">✡</text><text x="2.004" y="1.67" class="g">eval</text><text x="7.014" y="1.67" class="g">`fnm</text><text x="12.024" y="1.67" class="g">e</text></svg><svg x="910"><use xlink:href="#a"/><use xlink:href="#b" x="13.996"/><text y="1.67" class="f">✡</text><text x="2.004" y="1.67" class="g">eval</text><text x="7.014" y="1.67" class="g">`fnm</text><text x="12.024" y="1.67" class="g">en</text></svg><svg x="980"><use xlink:href="#a"/><use xlink:href="#b" x="14.996"/><text y="1.67" class="f">✡</text><text x="2.004" y="1.67" class="g">eval</text><text x="7.014" y="1.67" class="g">`fnm</text><text x="12.024" y="1.67" class="g">env</text></svg><svg x="1050"><use xlink:href="#a"/><use xlink:href="#b" x="15.996"/><use xlink:href="#4"/></svg><svg x="1120"><use xlink:href="#a"/><use xlink:href="#b" x="-.004" y="2.146"/><use xlink:href="#4"/></svg><svg x="1190"><use xlink:href="#a"/><use xlink:href="#b" x="1.996" y="2.146"/><use xlink:href="#4"/><use xlink:href="#1" y="2.171"/></svg><svg x="1260"><use xlink:href="#a"/><use xlink:href="#b" x="2.996" y="2.146"/><use xlink:href="#4"/><use xlink:href="#5" y="2.171"/></svg><svg x="1330"><use xlink:href="#a"/><use xlink:href="#b" x="3.996" y="2.146"/><use xlink:href="#4"/><use xlink:href="#6" y="2.171"/></svg><svg x="1400"><use xlink:href="#a"/><use xlink:href="#b" x="4.996" y="2.146"/><use xlink:href="#4"/><use xlink:href="#7" y="2.171"/></svg><svg x="1470"><use xlink:href="#a"/><use xlink:href="#b" x="5.996" y="2.146"/><use xlink:href="#4"/><use xlink:href="#7" y="2.171"/></svg><svg x="1540"><use xlink:href="#a"/><use xlink:href="#b" x="6.996" y="2.146"/><use xlink:href="#4"/><text y="3.841" class="f">✡</text><text x="2.004" y="3.841" class="g">fnm</text><text x="6.012" y="3.841" class="g">-</text></svg><svg x="1610"><use xlink:href="#a"/><use xlink:href="#b" x="7.996" y="2.146"/><use xlink:href="#4"/><text y="3.841" class="f">✡</text><text x="2.004" y="3.841" class="g">fnm</text><text x="6.012" y="3.841" class="g">--</text></svg><svg x="1680"><use xlink:href="#a"/><use xlink:href="#b" x="8.996" y="2.146"/><use xlink:href="#4"/><text y="3.841" class="f">✡</text><text x="2.004" y="3.841" class="g">fnm</text><text x="6.012" y="3.841" class="g">--v</text></svg><svg x="1750"><use xlink:href="#a"/><use xlink:href="#b" x="9.996" y="2.146"/><use xlink:href="#4"/><text y="3.841" class="f">✡</text><text x="2.004" y="3.841" class="g">fnm</text><text x="6.012" y="3.841" class="g">--ve</text></svg><svg x="1820"><use xlink:href="#a"/><use xlink:href="#b" x="10.996" y="2.146"/><use xlink:href="#4"/><text y="3.841" class="f">✡</text><text x="2.004" y="3.841" class="g">fnm</text><text x="6.012" y="3.841" class="g">--ver</text></svg><svg x="1890"><use xlink:href="#a"/><use xlink:href="#b" x="11.996" y="2.146"/><use xlink:href="#4"/><text y="3.841" class="f">✡</text><text x="2.004" y="3.841" class="g">fnm</text><text x="6.012" y="3.841" class="g">--vers</text></svg><svg x="1960"><use xlink:href="#a"/><use xlink:href="#b" x="12.996" y="2.146"/><use xlink:href="#4"/><text y="3.841" class="f">✡</text><text x="2.004" y="3.841" class="g">fnm</text><text x="6.012" y="3.841" class="g">--versi</text></svg><svg x="2030"><use xlink:href="#a"/><use xlink:href="#b" x="13.996" y="2.146"/><use xlink:href="#4"/><text y="3.841" class="f">✡</text><text x="2.004" y="3.841" class="g">fnm</text><text x="6.012" y="3.841" class="g">--versio</text></svg><svg x="2100"><use xlink:href="#a"/><use xlink:href="#b" x="14.996" y="2.146"/><use xlink:href="#4"/><use xlink:href="#8" y="2.171"/></svg><svg x="2170"><use xlink:href="#a"/><use xlink:href="#b" x="-.004" y="4.317"/><use xlink:href="#4"/><use xlink:href="#8" y="2.171"/></svg><svg x="2240"><use xlink:href="#a"/><use xlink:href="#b" x="-.004" y="6.488"/><use xlink:href="#4"/><use xlink:href="#8" y="2.171"/><use xlink:href="#9" y="4.342"/></svg><svg x="2310"><use xlink:href="#a"/><use xlink:href="#b" x="1.996" y="6.488"/><use xlink:href="#4"/><use xlink:href="#8" y="2.171"/><use xlink:href="#9" y="4.342"/><use xlink:href="#1" y="6.513"/></svg><svg x="2380"><use xlink:href="#a"/><use xlink:href="#b" x="2.996" y="6.488"/><use xlink:href="#4"/><use xlink:href="#8" y="2.171"/><use xlink:href="#9" y="4.342"/><text y="8.183" class="f">✡</text><text x="2.004" y="8.183" class="g">c</text></svg><svg x="2450"><use xlink:href="#a"/><use xlink:href="#b" x="3.996" y="6.488"/><use xlink:href="#4"/><use xlink:href="#8" y="2.171"/><use xlink:href="#9" y="4.342"/><text y="8.183" class="f">✡</text><text x="2.004" y="8.183" class="g">ca</text></svg><svg x="2520"><use xlink:href="#a"/><use xlink:href="#b" x="4.996" y="6.488"/><use xlink:href="#4"/><use xlink:href="#8" y="2.171"/><use xlink:href="#9" y="4.342"/><use xlink:href="#10" y="6.513"/></svg><svg x="2590"><use xlink:href="#a"/><use xlink:href="#b" x="5.996" y="6.488"/><use xlink:href="#4"/><use xlink:href="#8" y="2.171"/><use xlink:href="#9" y="4.342"/><use xlink:href="#10" y="6.513"/></svg><svg x="2660"><use xlink:href="#a"/><use xlink:href="#b" x="6.996" y="6.488"/><use xlink:href="#4"/><use xlink:href="#8" y="2.171"/><use xlink:href="#9" y="4.342"/><text y="8.183" class="f">✡</text><text x="2.004" y="8.183" class="g">cat</text><text x="6.012" y="8.183" class="g">.</text></svg><svg x="2730"><use xlink:href="#a"/><use xlink:href="#b" x="7.996" y="6.488"/><use xlink:href="#4"/><use xlink:href="#8" y="2.171"/><use xlink:href="#9" y="4.342"/><text y="8.183" class="f">✡</text><text x="2.004" y="8.183" class="g">cat</text><text x="6.012" y="8.183" class="g">.n</text></svg><svg x="2800"><use xlink:href="#a"/><use xlink:href="#b" x="8.996" y="6.488"/><use xlink:href="#4"/><use xlink:href="#8" y="2.171"/><use xlink:href="#9" y="4.342"/><text y="8.183" class="f">✡</text><text x="2.004" y="8.183" class="g">cat</text><text x="6.012" y="8.183" class="g">.nv</text></svg><svg x="2870"><use xlink:href="#a"/><use xlink:href="#b" x="9.996" y="6.488"/><use xlink:href="#4"/><use xlink:href="#8" y="2.171"/><use xlink:href="#9" y="4.342"/><text y="8.183" class="f">✡</text><text x="2.004" y="8.183" class="g">cat</text><text x="6.012" y="8.183" class="g">.nvm</text></svg><svg x="2940"><use xlink:href="#a"/><use xlink:href="#b" x="10.996" y="6.488"/><use xlink:href="#4"/><use xlink:href="#8" y="2.171"/><use xlink:href="#9" y="4.342"/><text y="8.183" class="f">✡</text><text x="2.004" y="8.183" class="g">cat</text><text x="6.012" y="8.183" class="g">.nvmr</text></svg><svg x="3010"><use xlink:href="#a"/><use xlink:href="#b" x="11.996" y="6.488"/><use xlink:href="#4"/><use xlink:href="#8" y="2.171"/><use xlink:href="#9" y="4.342"/><use xlink:href="#11" y="6.513"/></svg><svg x="3080"><use xlink:href="#a"/><use xlink:href="#b" x="-.004" y="8.659"/><use xlink:href="#4"/><use xlink:href="#8" y="2.171"/><use xlink:href="#9" y="4.342"/><use xlink:href="#11" y="6.513"/></svg><svg x="3150"><use xlink:href="#a"/><use xlink:href="#b" x="-.004" y="10.83"/><use xlink:href="#4"/><use xlink:href="#8" y="2.171"/><use xlink:href="#9" y="4.342"/><use xlink:href="#11" y="6.513"/><use xlink:href="#12" y="8.684"/></svg><svg x="3220"><use xlink:href="#a"/><use xlink:href="#b" x="1.996" y="10.83"/><use xlink:href="#4"/><use xlink:href="#8" y="2.171"/><use xlink:href="#9" y="4.342"/><use xlink:href="#11" y="6.513"/><use xlink:href="#12" y="8.684"/><use xlink:href="#1" y="10.855"/></svg><svg x="3290"><use xlink:href="#a"/><use xlink:href="#b" x="2.996" y="10.83"/><use xlink:href="#4"/><use xlink:href="#8" y="2.171"/><use xlink:href="#9" y="4.342"/><use xlink:href="#11" y="6.513"/><use xlink:href="#12" y="8.684"/><use xlink:href="#5" y="10.855"/></svg><svg x="3360"><use xlink:href="#a"/><use xlink:href="#b" x="3.996" y="10.83"/><use xlink:href="#4"/><use xlink:href="#8" y="2.171"/><use xlink:href="#9" y="4.342"/><use xlink:href="#11" y="6.513"/><use xlink:href="#12" y="8.684"/><use xlink:href="#6" y="10.855"/></svg><svg x="3430"><use xlink:href="#a"/><use xlink:href="#b" x="4.996" y="10.83"/><use xlink:href="#4"/><use xlink:href="#8" y="2.171"/><use xlink:href="#9" y="4.342"/><use xlink:href="#11" y="6.513"/><use xlink:href="#12" y="8.684"/><use xlink:href="#7" y="10.855"/></svg><svg x="3500"><use xlink:href="#a"/><use xlink:href="#b" x="5.996" y="10.83"/><use xlink:href="#4"/><use xlink:href="#8" y="2.171"/><use xlink:href="#9" y="4.342"/><use xlink:href="#11" y="6.513"/><use xlink:href="#12" y="8.684"/><use xlink:href="#7" y="10.855"/></svg><svg x="3570"><use xlink:href="#a"/><use xlink:href="#b" x="6.996" y="10.83"/><use xlink:href="#4"/><use xlink:href="#8" y="2.171"/><use xlink:href="#9" y="4.342"/><use xlink:href="#11" y="6.513"/><use xlink:href="#12" y="8.684"/><text y="12.525" class="f">✡</text><text x="2.004" y="12.525" class="g">fnm</text><text x="6.012" y="12.525" class="g">i</text></svg><svg x="3640"><use xlink:href="#a"/><use xlink:href="#b" x="7.996" y="10.83"/><use xlink:href="#4"/><use xlink:href="#8" y="2.171"/><use xlink:href="#9" y="4.342"/><use xlink:href="#11" y="6.513"/><use xlink:href="#12" y="8.684"/><text y="12.525" class="f">✡</text><text x="2.004" y="12.525" class="g">fnm</text><text x="6.012" y="12.525" class="g">in</text></svg><svg x="3710"><use xlink:href="#a"/><use xlink:href="#b" x="8.996" y="10.83"/><use xlink:href="#4"/><use xlink:href="#8" y="2.171"/><use xlink:href="#9" y="4.342"/><use xlink:href="#11" y="6.513"/><use xlink:href="#12" y="8.684"/><text y="12.525" class="f">✡</text><text x="2.004" y="12.525" class="g">fnm</text><text x="6.012" y="12.525" class="g">ins</text></svg><svg x="3780"><use xlink:href="#a"/><use xlink:href="#b" x="9.996" y="10.83"/><use xlink:href="#4"/><use xlink:href="#8" y="2.171"/><use xlink:href="#9" y="4.342"/><use xlink:href="#11" y="6.513"/><use xlink:href="#12" y="8.684"/><text y="12.525" class="f">✡</text><text x="2.004" y="12.525" class="g">fnm</text><text x="6.012" y="12.525" class="g">inst</text></svg><svg x="3850"><use xlink:href="#a"/><use xlink:href="#b" x="10.996" y="10.83"/><use xlink:href="#4"/><use xlink:href="#8" y="2.171"/><use xlink:href="#9" y="4.342"/><use xlink:href="#11" y="6.513"/><use xlink:href="#12" y="8.684"/><text y="12.525" class="f">✡</text><text x="2.004" y="12.525" class="g">fnm</text><text x="6.012" y="12.525" class="g">insta</text></svg><svg x="3920"><use xlink:href="#a"/><use xlink:href="#b" x="12.996" y="10.83"/><use xlink:href="#4"/><use xlink:href="#8" y="2.171"/><use xlink:href="#9" y="4.342"/><use xlink:href="#11" y="6.513"/><use xlink:href="#12" y="8.684"/><use xlink:href="#13" y="10.855"/></svg><svg x="3990"><use xlink:href="#a"/><use xlink:href="#b" x="-.004" y="13.001"/><use xlink:href="#4"/><use xlink:href="#8" y="2.171"/><use xlink:href="#9" y="4.342"/><use xlink:href="#11" y="6.513"/><use xlink:href="#12" y="8.684"/><use xlink:href="#13" y="10.855"/></svg><svg x="4060"><use xlink:href="#a"/><use xlink:href="#b" x="-.004" y="15.172"/><use xlink:href="#4"/><use xlink:href="#8" y="2.171"/><use xlink:href="#9" y="4.342"/><use xlink:href="#11" y="6.513"/><use xlink:href="#12" y="8.684"/><use xlink:href="#13" y="10.855"/><use xlink:href="#14" y="13.026"/></svg><svg x="4130"><use xlink:href="#a"/><use xlink:href="#b" x="1.996" y="15.172"/><use xlink:href="#4"/><use xlink:href="#8" y="2.171"/><use xlink:href="#9" y="4.342"/><use xlink:href="#11" y="6.513"/><use xlink:href="#12" y="8.684"/><use xlink:href="#13" y="10.855"/><use xlink:href="#14" y="13.026"/><use xlink:href="#1" y="15.197"/></svg><svg x="4200"><use xlink:href="#a"/><use xlink:href="#b" x="2.996" y="15.172"/><use xlink:href="#4"/><use xlink:href="#8" y="2.171"/><use xlink:href="#9" y="4.342"/><use xlink:href="#11" y="6.513"/><use xlink:href="#12" y="8.684"/><use xlink:href="#13" y="10.855"/><use xlink:href="#14" y="13.026"/><use xlink:href="#5" y="15.197"/></svg><svg x="4270"><use xlink:href="#a"/><use xlink:href="#b" x="3.996" y="15.172"/><use xlink:href="#4"/><use xlink:href="#8" y="2.171"/><use xlink:href="#9" y="4.342"/><use xlink:href="#11" y="6.513"/><use xlink:href="#12" y="8.684"/><use xlink:href="#13" y="10.855"/><use xlink:href="#14" y="13.026"/><use xlink:href="#6" y="15.197"/></svg><svg x="4340"><use xlink:href="#a"/><use xlink:href="#b" x="4.996" y="15.172"/><use xlink:href="#4"/><use xlink:href="#8" y="2.171"/><use xlink:href="#9" y="4.342"/><use xlink:href="#11" y="6.513"/><use xlink:href="#12" y="8.684"/><use xlink:href="#13" y="10.855"/><use xlink:href="#14" y="13.026"/><use xlink:href="#7" y="15.197"/></svg><svg x="4410"><use xlink:href="#a"/><use xlink:href="#b" x="5.996" y="15.172"/><use xlink:href="#4"/><use xlink:href="#8" y="2.171"/><use xlink:href="#9" y="4.342"/><use xlink:href="#11" y="6.513"/><use xlink:href="#12" y="8.684"/><use xlink:href="#13" y="10.855"/><use xlink:href="#14" y="13.026"/><use xlink:href="#7" y="15.197"/></svg><svg x="4480"><use xlink:href="#a"/><use xlink:href="#b" x="7.996" y="15.172"/><use xlink:href="#4"/><use xlink:href="#8" y="2.171"/><use xlink:href="#9" y="4.342"/><use xlink:href="#11" y="6.513"/><use xlink:href="#12" y="8.684"/><use xlink:href="#13" y="10.855"/><use xlink:href="#14" y="13.026"/><text y="16.867" class="f">✡</text><text x="2.004" y="16.867" class="g">fnm</text><text x="6.012" y="16.867" class="g">us</text></svg><svg x="4550"><use xlink:href="#a"/><use xlink:href="#b" x="8.996" y="15.172"/><use xlink:href="#4"/><use xlink:href="#8" y="2.171"/><use xlink:href="#9" y="4.342"/><use xlink:href="#11" y="6.513"/><use xlink:href="#12" y="8.684"/><use xlink:href="#13" y="10.855"/><use xlink:href="#14" y="13.026"/><use xlink:href="#15" y="15.197"/></svg><svg x="4620"><use xlink:href="#a"/><use xlink:href="#b" x="-.004" y="17.343"/><use xlink:href="#4"/><use xlink:href="#8" y="2.171"/><use xlink:href="#9" y="4.342"/><use xlink:href="#11" y="6.513"/><use xlink:href="#12" y="8.684"/><use xlink:href="#13" y="10.855"/><use xlink:href="#14" y="13.026"/><use xlink:href="#15" y="15.197"/></svg><svg x="4690"><use xlink:href="#a"/><use xlink:href="#b" x="-.004" y="19.514"/><use xlink:href="#4"/><use xlink:href="#8" y="2.171"/><use xlink:href="#9" y="4.342"/><use xlink:href="#11" y="6.513"/><use xlink:href="#12" y="8.684"/><use xlink:href="#13" y="10.855"/><use xlink:href="#14" y="13.026"/><use xlink:href="#15" y="15.197"/><use xlink:href="#16" y="17.368"/></svg><svg x="4760"><use xlink:href="#a"/><use xlink:href="#b" x="1.996" y="19.514"/><use xlink:href="#4"/><use xlink:href="#8" y="2.171"/><use xlink:href="#9" y="4.342"/><use xlink:href="#11" y="6.513"/><use xlink:href="#12" y="8.684"/><use xlink:href="#13" y="10.855"/><use xlink:href="#14" y="13.026"/><use xlink:href="#15" y="15.197"/><use xlink:href="#16" y="17.368"/><use xlink:href="#1" y="19.539"/></svg><svg x="4830"><use xlink:href="#a"/><use xlink:href="#b" x="2.996" y="19.514"/><use xlink:href="#4"/><use xlink:href="#8" y="2.171"/><use xlink:href="#9" y="4.342"/><use xlink:href="#11" y="6.513"/><use xlink:href="#12" y="8.684"/><use xlink:href="#13" y="10.855"/><use xlink:href="#14" y="13.026"/><use xlink:href="#15" y="15.197"/><use xlink:href="#16" y="17.368"/><text y="21.209" class="f">✡</text><text x="2.004" y="21.209" class="g">n</text></svg><svg x="4900"><use xlink:href="#a"/><use xlink:href="#b" x="3.996" y="19.514"/><use xlink:href="#4"/><use xlink:href="#8" y="2.171"/><use xlink:href="#9" y="4.342"/><use xlink:href="#11" y="6.513"/><use xlink:href="#12" y="8.684"/><use xlink:href="#13" y="10.855"/><use xlink:href="#14" y="13.026"/><use xlink:href="#15" y="15.197"/><use xlink:href="#16" y="17.368"/><text y="21.209" class="f">✡</text><text x="2.004" y="21.209" class="g">no</text></svg><svg x="4970"><use xlink:href="#a"/><use xlink:href="#b" x="4.996" y="19.514"/><use xlink:href="#4"/><use xlink:href="#8" y="2.171"/><use xlink:href="#9" y="4.342"/><use xlink:href="#11" y="6.513"/><use xlink:href="#12" y="8.684"/><use xlink:href="#13" y="10.855"/><use xlink:href="#14" y="13.026"/><use xlink:href="#15" y="15.197"/><use xlink:href="#16" y="17.368"/><text y="21.209" class="f">✡</text><text x="2.004" y="21.209" class="g">nod</text></svg><svg x="5040"><use xlink:href="#a"/><use xlink:href="#b" x="5.996" y="19.514"/><use xlink:href="#4"/><use xlink:href="#8" y="2.171"/><use xlink:href="#9" y="4.342"/><use xlink:href="#11" y="6.513"/><use xlink:href="#12" y="8.684"/><use xlink:href="#13" y="10.855"/><use xlink:href="#14" y="13.026"/><use xlink:href="#15" y="15.197"/><use xlink:href="#16" y="17.368"/><use xlink:href="#17" y="19.539"/></svg><svg x="5110"><use xlink:href="#a"/><use xlink:href="#b" x="6.996" y="19.514"/><use xlink:href="#4"/><use xlink:href="#8" y="2.171"/><use xlink:href="#9" y="4.342"/><use xlink:href="#11" y="6.513"/><use xlink:href="#12" y="8.684"/><use xlink:href="#13" y="10.855"/><use xlink:href="#14" y="13.026"/><use xlink:href="#15" y="15.197"/><use xlink:href="#16" y="17.368"/><use xlink:href="#17" y="19.539"/></svg><svg x="5180"><use xlink:href="#a"/><use xlink:href="#b" x="7.996" y="19.514"/><use xlink:href="#4"/><use xlink:href="#8" y="2.171"/><use xlink:href="#9" y="4.342"/><use xlink:href="#11" y="6.513"/><use xlink:href="#12" y="8.684"/><use xlink:href="#13" y="10.855"/><use xlink:href="#14" y="13.026"/><use xlink:href="#15" y="15.197"/><use xlink:href="#16" y="17.368"/><text y="21.209" class="f">✡</text><text x="2.004" y="21.209" class="g">node</text><text x="7.014" y="21.209" class="g">-</text></svg><svg x="5250"><use xlink:href="#a"/><use xlink:href="#b" x="8.996" y="19.514"/><use xlink:href="#4"/><use xlink:href="#8" y="2.171"/><use xlink:href="#9" y="4.342"/><use xlink:href="#11" y="6.513"/><use xlink:href="#12" y="8.684"/><use xlink:href="#13" y="10.855"/><use xlink:href="#14" y="13.026"/><use xlink:href="#15" y="15.197"/><use xlink:href="#16" y="17.368"/><use xlink:href="#18" y="19.539"/></svg><svg x="5320"><use xlink:href="#a"/><use xlink:href="#b" x="-.004" y="21.685"/><use xlink:href="#4"/><use xlink:href="#8" y="2.171"/><use xlink:href="#9" y="4.342"/><use xlink:href="#11" y="6.513"/><use xlink:href="#12" y="8.684"/><use xlink:href="#13" y="10.855"/><use xlink:href="#14" y="13.026"/><use xlink:href="#15" y="15.197"/><use xlink:href="#16" y="17.368"/><use xlink:href="#18" y="19.539"/></svg><svg x="5390"><use xlink:href="#a"/><use xlink:href="#b" x="-.004" y="23.856"/><use xlink:href="#4"/><use xlink:href="#8" y="2.171"/><use xlink:href="#9" y="4.342"/><use xlink:href="#11" y="6.513"/><use xlink:href="#12" y="8.684"/><use xlink:href="#13" y="10.855"/><use xlink:href="#14" y="13.026"/><use xlink:href="#15" y="15.197"/><use xlink:href="#16" y="17.368"/><use xlink:href="#18" y="19.539"/><use xlink:href="#19" y="21.71"/></svg><svg x="5460"><use xlink:href="#a"/><use xlink:href="#b" x="-.004" y="26.027"/><use xlink:href="#4"/><use xlink:href="#8" y="2.171"/><use xlink:href="#9" y="4.342"/><use xlink:href="#11" y="6.513"/><use xlink:href="#12" y="8.684"/><use xlink:href="#13" y="10.855"/><use xlink:href="#14" y="13.026"/><use xlink:href="#15" y="15.197"/><use xlink:href="#16" y="17.368"/><use xlink:href="#18" y="19.539"/><use xlink:href="#19" y="21.71"/></svg></svg></g></g></svg></svg>